HIERARCHY
ROOT Hips
{
  OFFSET 1.44925e-005 102.336 -0.101585
  CHANNELS 6 Xposition Yposition Zposition Zrotation Xrotation Yrotation
  JOINT LeftUpLeg
  {
    OFFSET 8.9458 -8.66707 0.101652
    CHANNELS 3 Zrotation Xrotation Yrotation
    JOINT LeftLeg
    {
      OFFSET 0 -44.4227 1.3727
      CHANNELS 3 Zrotation Xrotation Yrotation
      JOINT LeftFoot
      {
        OFFSET -0.253549 -42.0924 -1.46059
        CHANNELS 3 Zrotation Xrotation Yrotation
        JOINT LeftToes
        {
          OFFSET -0.04 -4.41509 8.4991
          CHANNELS 3 Zrotation Xrotation Yrotation
          End Site
          {
            OFFSET 0.08 -0.047448 9.77979
          }
        }
      }
    }
  }
  JOINT Spine
  {
    OFFSET 0 11.8905 0
    CHANNELS 3 Zrotation Xrotation Yrotation
    JOINT Spine1
    {
      OFFSET 0 25.6574 0.127663
      CHANNELS 3 Zrotation Xrotation Yrotation
      JOINT RightShoulder
      {
        OFFSET -8.99 -0.362252 -0.22
        CHANNELS 3 Zrotation Xrotation Yrotation
        JOINT RightArm
        {
          OFFSET -10.2827 -0.00338 0.322123
          CHANNELS 3 Zrotation Xrotation Yrotation
          JOINT RightForeArm
          {
            OFFSET -26.364 0.099144 -1.42434
            CHANNELS 3 Zrotation Xrotation Yrotation
            JOINT RightHand
            {
              OFFSET -22.0324 0.085362 1.02216
              CHANNELS 3 Zrotation Xrotation Yrotation
              End Site
              {
                OFFSET -13.3284 -0.6 1.50291
              }
            }
          }
        }
      }
      JOINT LeftShoulder1
      {
        OFFSET 8.99 -0.362252 -0.22
        CHANNELS 3 Zrotation Xrotation Yrotation
        JOINT LeftArm
        {
          OFFSET 10.2827 -0.00337999 0.322123
          CHANNELS 3 Zrotation Xrotation Yrotation
          JOINT LeftForeArm
          {
            OFFSET 26.2597 0.099144 -1.42434
            CHANNELS 3 Zrotation Xrotation Yrotation
            JOINT LeftHand
            {
              OFFSET 22.0902 0.085362 1.02216
              CHANNELS 3 Zrotation Xrotation Yrotation
              End Site
              {
                OFFSET 13.419 -0.6 1.50291
              }
            }
          }
        }
      }
      JOINT Head
      {
        OFFSET 0 8.73416 0.011341
        CHANNELS 3 Zrotation Xrotation Yrotation
        End Site
        {
          OFFSET -0.29 12.7742 2.51395
        }
      }
    }
  }
  JOINT RightUpLeg
  {
    OFFSET -8.9458 -8.66707 0.101652
    CHANNELS 3 Zrotation Xrotation Yrotation
    JOINT RightLeg
    {
      OFFSET 0 -44.4227 1.3727
      CHANNELS 3 Zrotation Xrotation Yrotation
      JOINT RightFoot
      {
        OFFSET 0.253549 -42.0924 -1.46059
        CHANNELS 3 Zrotation Xrotation Yrotation
        JOINT RightToes
        {
          OFFSET 0.04 -4.41509 8.4991
          CHANNELS 3 Zrotation Xrotation Yrotation
          End Site
          {
            OFFSET -0.08 -0.137448 9.77979
          }
        }
      }
    }
  }
}
MOTION
Frames:	19
Frame Time:	0.0333333
26.4679 98.825 1.23171 -5.88817 -2.49093 -94.0103 -10.9371 -1.6228 -3.28407 1.25884 25.8135 23.325 1.2817 -21.6359 0.279193 -1.37585e-009 8.75206e-006 -1.46697e-008 -0.787004 17.4182 0.968222 -3.70975 -1.71456 1.25505 37.792 1.81424 0.126744 40.5661 -23.7606 4.02445 13.9208 46.1288 -4.20028 -17.3513 8.89507 1.58157 -45.3317 3.6346 -3.47337 -28.0872 -13.4643 0.0175588 5.7885 30.8811 -38.7203 5.82328 9.61819 -0.917488 -1.01443 -16.7356 -1.16512 -4.00775 -24.1868 2.47415 -3.1362 73.1476 -15.7349 8.4328 -11.5693 0.0976466 0.0462048 0.000530889 0.662642 
21.3037 99.0881 1.13451 -5.65287 -2.23906 -92.9857 -10.3115 3.58828 -1.81577 1.23262 21.6712 21.4837 2.36336 -22.1753 0.43101 -1.37585e-009 8.75206e-006 -1.46697e-008 -0.890775 17.0819 0.317309 -2.51454 -1.84183 0.480446 38.0181 1.81602 0.0960591 37.3765 -23.7962 -4.19406 11.9078 42.785 -0.0589927 -16.7968 8.91508 1.6827 -44.7549 3.60796 -3.50805 -28.3782 -16.3587 -3.226 9.08567 31.4375 -48.3363 5.82328 9.61819 -0.917488 -0.524879 -16.6597 -0.922899 -4.21785 -28.3037 0.392874 -2.1941 63.4313 -17.5879 9.16617 -13.3326 0.251473 0.0462048 0.000530889 0.662642 
16.0144 98.8484 1.0236 -5.48962 -2.13197 -92.0947 -9.70369 8.59698 -0.077845 0.978203 18.2598 19.1634 2.04918 -23.8031 0.428449 -1.37585e-009 8.75206e-006 -1.46697e-008 -0.891483 16.6385 -0.351742 -1.71855 -1.8451 -0.235418 37.9383 1.81625 0.09767 34.7611 -22.9245 -11.6652 10.4242 40.0167 3.5156 -16.2992 8.95921 1.58366 -44.2522 3.57349 -3.51661 -28.3607 -18.3699 -6.51398 11.7728 31.0161 -56.8565 5.82328 9.61819 -0.917488 0.0458896 -16.7036 -0.610853 -4.79015 -30.5663 -2.00607 -1.49502 50.9313 -17.0306 9.56124 -13.18 0.259791 0.0462048 0.000530889 0.662642 
10.5967 98.0098 0.872761 -5.78924 -1.90725 -91.5112 -8.98571 13.5851 1.6502 0.619319 16.305 16.8539 0.619117 -25.994 0.249426 -1.37585e-009 8.75206e-006 -1.46697e-008 -0.821467 16.4817 -0.989734 -0.780224 -1.54322 -0.962582 37.5729 1.8143 0.137183 32.922 -21.5576 -17.3365 9.85538 37.927 5.14711 -15.9695 9.01215 1.33265 -43.6915 3.52663 -3.50916 -28.4517 -20.5102 -9.43279 14.1173 30.2175 -64.2612 5.82328 9.61819 -0.917488 0.389657 -16.9726 -0.0489614 -4.81347 -30.8751 -4.33459 -1.10154 37.8983 -15.611 10.5767 -13.29 0.3232 0.0462048 0.000530889 0.662642 
4.99245 96.612 0.608473 -6.48564 -1.78265 -90.7235 -8.48486 18.0646 2.98373 0.799999 16.7153 14.8462 -0.627712 -28.0974 0.0431606 -1.37585e-009 8.75206e-006 -1.46697e-008 -1.42109 16.1904 -1.63782 0.815958 -0.637134 -1.95337 37.2281 1.80936 0.167223 30.8367 -21.4351 -21.2267 10.2103 37.4819 4.60802 -15.7054 9.05098 1.15074 -42.8369 3.44772 -3.48158 -29.2436 -22.7978 -11.7146 15.5404 29.2238 -69.7702 5.82328 9.61819 -0.917488 0.508494 -17.3732 0.687317 -4.41161 -29.6111 -7.00705 -0.861847 27.401 -14.4586 12.4558 -14.3028 0.517659 0.0462048 0.000530889 0.662642 
-0.878773 95.178 0.300925 -6.99338 -1.38295 -89.5501 -7.74549 21.7948 3.19872 1.39669 18.5195 13.7055 -2.7009 -29.7 -0.379654 -1.37585e-009 8.75206e-006 -1.46697e-008 -1.75523 15.227 -2.32146 2.69822 0.523251 -3.05287 37.0185 1.79597 0.154195 28.0689 -22.5844 -24.3546 10.6867 37.9903 3.19413 -15.5903 9.08157 0.961656 -42.04 3.37743 -3.46102 -30.3497 -24.5557 -12.6321 15.9344 28.442 -72.8777 5.82328 9.61819 -0.917488 0.37399 -17.1338 1.30781 -3.31888 -28.0384 -8.9932 -0.513496 22.6143 -13.9464 11.9751 -13.6451 0.432507 0.0462048 0.000530889 0.662642 
-7.01321 94.0111 0.0577687 -7.14285 -0.26228 -89.7328 -5.91812 24.3545 2.49054 1.31863 21.9802 13.7291 -7.2606 -29.6516 -1.28386 -1.37585e-009 8.75206e-006 -1.46697e-008 -0.0688514 13.9798 -2.89853 3.71238 0.992001 -3.62135 36.7884 1.77405 0.123424 24.9878 -24.4785 -27.2015 10.7359 38.0636 1.85343 -15.7875 9.12746 0.52064 -41.9743 3.38922 -3.49526 -30.7674 -25.6685 -11.0986 16.3905 28.2455 -74.079 5.82328 9.61819 -0.917488 -0.202071 -15.8057 1.82954 -0.733201 -27.5238 -8.60432 -0.468694 24.8164 -13.925 7.28862 -10.2326 -0.00419794 0.0462048 0.000530889 0.662642 
-13.2614 93.0552 -0.163964 -7.3715 2.23424 -89.9496 -2.98904 24.4176 3.75831 0.812603 30.1096 13.1981 -11.6575 -24.9796 -1.67931 -1.37585e-009 8.75206e-006 -1.46697e-008 3.37542 13.2406 -3.23042 3.54641 0.575886 -3.42182 36.6085 1.75712 0.0995935 22.487 -26.8795 -28.4185 10.4755 36.9554 0.480572 -16.2587 9.18098 -0.06867 -42.6599 3.4828 -3.57995 -30.4406 -26.3979 -7.39146 17.6409 28.8552 -73.5998 5.82328 9.61819 -0.917488 -1.07496 -14.4649 2.45858 3.24221 -27.8603 -6.07838 -1.0127 31.6696 -14.0487 1.13154 -7.14949 -0.187309 0.0462048 0.000530889 0.662642 
-19.0823 92.6399 -0.482158 -7.76711 4.60883 -91.0218 0.898987 20.2918 6.0124 1.11752 43.964 12.8183 -11.7261 -13.1286 -0.551531 -1.37585e-009 8.75206e-006 -1.46697e-008 6.59211 13.1441 -3.43782 3.5144 0.391744 -3.0882 36.7838 1.75078 0.0696741 21.7243 -29.9542 -26.3493 10.1105 35.4251 -0.896025 -16.7185 9.20747 -0.421827 -43.4467 3.57568 -3.64461 -30.375 -26.1522 -3.78344 18.6679 30.4763 -70.209 5.82328 9.61819 -0.917488 -1.63859 -14.6001 2.84938 7.164 -27.0381 -2.8003 -1.1084 37.7519 -15.7591 -2.36936 -8.25412 -0.191813 0.0462048 0.000530889 0.662642 
-24.004 92.6191 -0.876277 -8.06814 6.71656 -89.8124 5.06857 11.7691 5.1764 1.65674 60.7487 14.169 -8.97332 -0.555042 0.549434 -1.37585e-009 8.75206e-006 -1.46697e-008 8.9311 13.2848 -3.94452 4.52065 1.12152 -3.12913 37.2262 1.74855 0.0269167 23.771 -32.8371 -21.1371 9.64963 34.2014 -1.26078 -16.8234 9.19764 -0.382284 -43.8523 3.60718 -3.64417 -31.2033 -23.562 -2.27808 17.5681 32.8798 -62.2049 5.82328 9.61819 -0.917488 -1.56139 -15.95 2.19229 9.66403 -25.2379 -2.26151 -1.24301 41.4526 -17.6321 -2.14488 -13.0583 -0.299778 0.0462048 0.000530889 0.662642 
-28.5348 93.0889 -1.19836 -8.2744 7.73876 -87.5156 7.22606 1.74033 2.95023 3.25078 75.3857 14.2551 -6.22588 2.93383 0.562107 -1.37585e-009 8.75206e-006 -1.46697e-008 10.7464 13.3512 -4.36035 5.22715 1.71727 -3.02789 37.5005 1.74526 -0.00475851 28.1298 -34.0088 -14.5475 9.26535 33.4167 0.23616 -16.5512 9.16483 -0.0499524 -44.063 3.60963 -3.61644 -32.0835 -17.9783 -2.37093 13.5232 34.6746 -49.8258 5.82328 9.61819 -0.917488 -1.26504 -16.8598 0.285271 10.4944 -22.2121 -3.75397 -1.31345 42.178 -18.5813 -0.305159 -17.3511 -0.266432 0.0462048 0.000530889 0.662642 
-33.448 94.3703 -1.38683 -8.52004 7.55081 -86.4512 6.97245 -7.07809 2.01582 8.79646 84.4319 9.29647 -3.78203 -1.58475 0.194294 -1.37585e-009 8.75206e-006 -1.46697e-008 11.9217 13.2346 -3.84904 4.10702 1.36758 -2.04586 37.5068 1.74433 -0.0102231 33.0226 -32.5252 -7.81391 9.07031 32.9216 3.29743 -16.2382 9.10674 0.498833 -44.4263 3.62608 -3.59308 -32.194 -10.0434 -2.22419 7.64641 33.6936 -36.0044 5.82328 9.61819 -0.917488 -1.20428 -16.5139 -2.05351 10.2584 -17.3527 -4.92553 -1.27207 40.0112 -18.308 0.752851 -19.2167 -0.173586 0.0462048 0.000530889 0.662642 
-38.5278 95.8245 -1.48015 -8.77754 6.86812 -86.9517 6.12977 -14.4983 2.4217 21.1106 87.5975 -3.16688 -3.5125 -7.43293 0.0296716 -1.37585e-009 8.75206e-006 -1.46697e-008 12.785 13.1658 -2.70863 1.95038 0.635036 -0.438913 37.3922 1.744 0.00277577 37.0291 -27.1102 -1.12418 8.45738 31.1091 7.6383 -16.0894 9.02612 1.17214 -44.7405 3.62749 -3.54814 -32.0542 -4.36579 -0.781049 2.15049 31.688 -24.2621 5.82328 9.61819 -0.917488 -1.38369 -15.5073 -3.88154 9.82076 -11.8501 -4.80329 -1.1779 36.8624 -17.9357 1.24139 -20.4179 -0.114801 0.0462048 0.000530889 0.662642 
-43.6229 96.9059 -1.54694 -9.08941 6.03397 -87.8602 5.29453 -21.086 2.7685 14.8113 86.6033 3.52347 -4.26718 -10.4185 -0.0540594 -1.37585e-009 8.75206e-006 -1.46697e-008 13.1704 13.2428 -1.58262 0.017504 -0.169452 1.0056 37.0898 1.74167 0.0224271 39.0206 -16.6533 4.81926 6.57272 25.0382 13.7472 -15.7785 8.98306 1.64694 -44.6988 3.58582 -3.47347 -31.207 -11.4603 2.0249 -3.80541 39.034 -14.5005 5.82328 9.61819 -0.917488 -1.65243 -14.5933 -5.03462 9.12983 -6.24238 -4.294 -0.829363 33.6074 -17.7925 2.13457 -22.2997 0.0113986 0.0462048 0.000530889 0.662642 
-48.7583 97.6332 -1.58966 -9.51726 5.02984 -88.4454 4.03335 -26.361 2.25958 6.42683 81.9234 13.5135 -4.1197 -12.8004 -0.125224 -1.37585e-009 8.75206e-006 -1.46697e-008 13.003 13.3392 -0.704172 -1.75552 -0.876517 1.94823 36.5003 1.72947 0.0442035 39.1676 -8.18141 9.72812 4.42284 19.0104 20.7914 -14.8778 9.03861 1.64348 -44.464 3.52984 -3.39946 -28.7351 -20.7693 6.04449 -10.0185 47.1752 -5.34851 5.82328 9.61819 -0.917488 -1.98203 -14.02 -5.81538 7.89833 -0.228489 -4.17322 0.000369668 29.7076 -17.4793 2.85836 -23.7926 0.134439 0.0462048 0.000530889 0.662642 
-53.8629 97.9875 -1.57601 -9.96866 4.26734 -88.9011 3.05813 -29.7002 1.31343 3.35087 73.1201 17.6663 -4.51766 -15.6714 -0.244138 -1.37585e-009 8.75206e-006 -1.46697e-008 12.9238 13.0487 -0.0229307 -3.43533 -0.8277 2.59736 35.8251 1.71319 0.0641134 39.7433 -9.62778 14.4197 3.48995 19.6042 27.3235 -13.811 9.14276 1.30119 -44.3772 3.49222 -3.3388 -26.0427 -22.581 10.7532 -13.0546 48.953 -0.536688 5.82328 9.61819 -0.917488 -2.40512 -13.901 -6.25303 6.68132 5.77989 -4.90995 0.73173 25.6194 -16.161 2.71558 -24.5384 0.127792 0.0462048 0.000530889 0.662642 
-59.0083 97.9247 -1.55858 -10.1668 3.86247 -89.6754 3.02634 -31.282 0.834066 1.96523 60.646 18.1677 -5.784 -16.0506 -0.348011 -1.37585e-009 8.75206e-006 -1.46697e-008 12.6418 11.9556 0.758612 -4.47799 0.221581 3.20269 35.4124 1.70301 0.0759309 40.1631 -12.0485 19.435 4.35014 19.4058 33.0379 -13.662 9.1881 0.969515 -44.5521 3.47792 -3.28527 -23.6272 -21.5849 16.0264 -13.1568 49.16 -0.430022 5.82328 9.61819 -0.917488 -2.77667 -14.2439 -6.21219 5.84372 11.3322 -5.79688 0.960212 21.8829 -14.1918 2.84936 -25.5835 0.170545 0.0462048 0.000530889 0.662642 
-64.1552 97.5204 -1.58505 -9.99414 3.43363 -90.8084 3.25355 -31.5395 0.738564 1.28877 46.118 17.4078 -6.32924 -14.295 -0.302362 -1.37585e-009 8.75206e-006 -1.46697e-008 11.6987 10.4301 1.73757 -5.11173 1.73222 3.88359 35.2688 1.69996 0.081262 40.0017 -13.3547 24.4628 5.52543 18.7753 37.8147 -14.5649 9.14664 0.892166 -44.8849 3.48229 -3.24546 -21.8795 -19.3674 21.4042 -11.8109 47.7817 -2.79572 5.82328 9.61819 -0.917488 -2.89629 -14.7385 -5.92636 5.05552 16.458 -6.50648 0.707804 18.178 -11.8643 4.26256 -26.9052 0.443968 0.0462048 0.000530889 0.662642 
-69.2877 96.6313 -1.50543 -9.78151 3.26665 -92.2712 3.69445 -30.5362 0.761189 1.03681 32.2454 17.2344 -6.92597 -13.9739 -0.320931 -1.37585e-009 8.75206e-006 -1.46697e-008 11.5193 9.11008 2.64236 -6.35638 3.14309 4.8087 34.9003 1.68976 0.0892906 40.3849 -14.5523 28.7291 5.20952 19.6621 41.8166 -15.4152 9.08729 0.993964 -45.069 3.49102 -3.2358 -20.846 -17.262 26.158 -10.764 45.4173 -4.73936 5.82328 9.61819 -0.917488 -2.83283 -15.0826 -5.78934 4.22571 20.8431 -7.09998 0.38449 15.8576 -9.36785 5.75896 -28.1978 0.765648 0.0462048 0.000530889 0.662642 
